<?xml version="1.0" encoding="UTF-8"?><svg id="Layer_1" xmlns="http://www.w3.org/2000/svg" viewBox="0 0 1142.021 347.387"><defs><style>.cls-1{fill:#2d348b;}</style></defs><path class="cls-1" d="M438.07,99.097h-86.804v62.692h74.265v16.878h-74.265v81.982h-20.496V82.218h107.3v16.879Z"/><path class="cls-1" d="M542.017,141.293h19.772v119.356h-19.772v-39.303h-.483c0,26.041-16.637,41.714-44.125,41.714-31.828,0-50.636-23.148-50.636-62.21,0-38.821,18.807-61.969,50.636-61.969,27.488,0,44.125,15.432,44.125,41.474h.483v-39.062h0ZM543.464,200.85c0-28.211-13.986-45.813-38.34-45.813-24.112,0-38.097,17.119-38.097,45.813,0,28.935,13.985,45.814,38.097,45.814,24.354,0,38.34-17.602,38.34-45.814h0Z"/><path class="cls-1" d="M592.58,260.649V74.984h19.772v185.665h-19.772Z"/><path class="cls-1" d="M746.802,186.382v74.266h-19.772v-73.784c0-20.013-11.092-31.828-30.382-31.828-21.46,0-33.998,14.949-33.998,40.267v65.344h-19.772V74.984h19.772v107.3h.483c0-27.247,15.19-43.402,40.508-43.402,27.247,0,43.161,17.602,43.161,47.501h0Z"/><path class="cls-1" d="M865.889,141.293h19.772v119.356h-19.772v-39.303h-.483c0,26.041-16.637,41.714-44.125,41.714-31.828,0-50.636-23.148-50.636-62.21,0-38.821,18.807-61.969,50.636-61.969,27.488,0,44.125,15.432,44.125,41.474h.483v-39.062h0ZM867.337,200.85c0-28.211-13.986-45.813-38.34-45.813-24.112,0-38.097,17.119-38.097,45.813,0,28.935,13.985,45.814,38.097,45.814,24.354,0,38.34-17.602,38.34-45.814h0Z"/><path class="cls-1" d="M997.35,141.293h19.772v119.356h-19.772v-40.991h-.483c0,27.247-14.708,43.402-39.303,43.402-26.524,0-41.955-17.602-41.955-47.501v-74.266h19.772v73.543c0,20.254,10.609,32.068,29.176,32.068,20.736,0,32.792-14.949,32.792-40.508v-65.103h0Z"/><path class="cls-1" d="M1040.749,222.069h19.049c0,17.119,11.573,27.005,31.587,27.005,19.772,0,31.345-7.715,31.345-20.495,0-16.637-16.878-19.531-34.721-22.907-20.736-3.617-43.643-7.716-43.643-32.792,0-20.978,17.602-33.999,47.019-33.999s47.019,14.467,47.019,39.545h-19.049c0-16.397-10.126-25.8-27.97-25.8-17.361,0-27.729,6.993-27.729,19.049,0,13.502,15.19,16.396,32.069,19.29,21.46,3.858,46.296,8.44,46.296,35.928,0,22.665-18.808,36.168-50.636,36.168s-50.636-15.19-50.636-40.991h0Z"/><path class="cls-1" d="M492.957,335.578c-1.453,0-2.657-.258-3.611-.774-.956-.516-1.682-1.29-2.178-2.321-.498-1.032-.745-2.312-.745-3.841v-35.483c0-.344.124-.602.372-.774.249-.173.679-.259,1.29-.259h.402c.61,0,1.04.086,1.29.259.247.171.372.43.372.774v35.311c0,1.49.249,2.503.745,3.038.496.536,1.338.802,2.522.802.955,0,1.663-.104,2.121-.316.458-.21.822-.316,1.089-.316.152,0,.277.096.372.287.095.192.173.411.229.659.058.249.095.487.116.717.018.229.028.4.028.515,0,.344-.25.641-.745.889-.497.249-1.089.449-1.777.601-.689.152-1.319.229-1.892.229h0Z"/><path class="cls-1" d="M513.438,335.578c-4.166,0-7.337-1.299-9.516-3.898-2.178-2.598-3.267-6.363-3.267-11.292,0-5.006,1.098-8.836,3.297-11.493,2.196-2.656,5.359-3.984,9.486-3.984,4.089,0,7.213,1.328,9.373,3.984,2.158,2.657,3.239,6.487,3.239,11.493,0,4.968-1.071,8.742-3.211,11.321-2.141,2.58-5.274,3.87-9.401,3.87h0ZM513.324,332.369c3.057,0,5.302-.994,6.735-2.981,1.434-1.987,2.15-5.025,2.15-9.114s-.716-7.137-2.15-9.143c-1.433-2.007-3.678-3.01-6.735-3.01-3.019,0-5.245.994-6.677,2.98-1.434,1.987-2.15,5.045-2.15,9.172,0,4.09.707,7.128,2.12,9.114,1.414,1.987,3.65,2.981,6.707,2.981h0Z"/><path class="cls-1" d="M555.512,335.578c-1.414,0-2.608-.258-3.583-.774s-1.701-1.29-2.178-2.321c-.479-1.032-.717-2.312-.717-3.841v-20.178h-3.611c-.65,0-.975-.439-.975-1.318v-.573c0-.879.324-1.319.975-1.319h3.611l.459-6.247c.076-.382.219-.65.43-.803.209-.152.545-.229,1.003-.229h.287c.573,0,.975.086,1.204.259.229.171.344.43.344.774v6.247h5.674c.65,0,.975.44.975,1.319v.573c0,.879-.324,1.318-.975,1.318h-5.674v20.006c0,1.452.247,2.455.745,3.009.496.555,1.318.832,2.464.832,1.032,0,1.787-.104,2.264-.316.478-.21.851-.316,1.118-.316.152,0,.277.096.372.287.095.192.173.411.229.659.058.249.095.487.115.717.019.229.028.4.028.515,0,.344-.258.641-.774.889-.515.249-1.128.449-1.834.601s-1.366.229-1.977.229h0Z"/><path class="cls-1" d="M574.304,335.578c-2.752,0-4.883-.746-6.392-2.235-1.51-1.491-2.264-3.574-2.264-6.249v-20.923c0-.344.124-.602.372-.774.249-.173.679-.259,1.29-.259h.402c.61,0,1.04.086,1.29.259.247.171.372.43.372.774v20.636c0,1.834.497,3.221,1.491,4.157s2.445,1.405,4.356,1.405c.994,0,1.997-.162,3.01-.488,1.012-.324,1.977-.793,2.895-1.405.917-.61,1.681-1.318,2.293-2.12v-22.185c0-.344.124-.602.372-.774.249-.173.697-.259,1.348-.259h.344c.649,0,1.098.086,1.347.259.249.171.373.43.373.774v20.465c0,1.604.048,2.932.143,3.983.095,1.052.191,1.864.287,2.437.094.573.143.975.143,1.204,0,.153-.077.296-.229.43-.153.134-.344.24-.573.316-.23.077-.479.134-.745.171-.268.039-.516.058-.745.058-.344,0-.602-.095-.774-.287-.173-.191-.326-.573-.459-1.146-.134-.574-.314-1.356-.545-2.35-.688.726-1.548,1.405-2.579,2.035-1.032.631-2.132,1.138-3.297,1.519-1.166.381-2.341.573-3.525.573h.001Z"/><path class="cls-1" d="M601.055,347.158c-.459,0-.822-.067-1.089-.201-.268-.134-.402-.316-.402-.545,0-.115.018-.249.057-.402s.116-.363.23-.63l4.987-12.783-.23,3.324-10.662-29.12c-.039-.076-.077-.201-.115-.373-.039-.171-.057-.316-.057-.43,0-.305.143-.524.429-.659.287-.133.717-.201,1.29-.201h.345c.458,0,.831.058,1.118.173s.487.326.601.631l8.255,24.018h.229l8.082-24.018c.115-.305.324-.516.631-.631.305-.115.688-.173,1.147-.173h.286c.536,0,.918.068,1.147.201.229.135.344.354.344.659,0,.115-.01.25-.028.402-.02.153-.067.306-.144.458l-14.101,39.324c-.115.344-.335.592-.659.746-.324.152-.755.229-1.29.229h-.4Z"/><path class="cls-1" d="M634.279,335.578c-4.166,0-7.337-1.299-9.516-3.898-2.178-2.598-3.267-6.363-3.267-11.292,0-5.006,1.098-8.836,3.297-11.493,2.196-2.656,5.359-3.984,9.486-3.984,4.089,0,7.213,1.328,9.373,3.984,2.158,2.657,3.239,6.487,3.239,11.493,0,4.968-1.071,8.742-3.211,11.321-2.141,2.58-5.274,3.87-9.401,3.87h0ZM634.164,332.369c3.057,0,5.302-.994,6.735-2.981,1.434-1.987,2.15-5.025,2.15-9.114s-.716-7.137-2.15-9.143c-1.433-2.007-3.678-3.01-6.735-3.01-3.019,0-5.245.994-6.677,2.98-1.434,1.987-2.15,5.045-2.15,9.172,0,4.09.707,7.128,2.12,9.114,1.414,1.987,3.65,2.981,6.707,2.981h0Z"/><path class="cls-1" d="M670.506,335.349c-.612,0-1.042-.086-1.29-.258-.249-.173-.372-.43-.372-.774v-20.465c0-1.796-.049-3.2-.143-4.213-.097-1.012-.192-1.777-.287-2.293-.097-.516-.143-.889-.143-1.118,0-.152.085-.286.258-.4s.381-.21.631-.287c.247-.076.516-.134.802-.173.287-.037.525-.057.717-.057.305,0,.534.095.688.287.152.192.305.554.458,1.089s.324,1.318.516,2.35c.689-.764,1.509-1.451,2.465-2.063.954-.61,2.006-1.107,3.153-1.491,1.147-.381,2.293-.573,3.44-.573s2.226.153,3.239.458c1.012.307,1.91.794,2.693,1.462.783.669,1.404,1.558,1.864,2.666.688-.879,1.548-1.663,2.579-2.35,1.032-.689,2.141-1.233,3.325-1.634,1.185-.402,2.35-.602,3.496-.602,1.796,0,3.325.344,4.586,1.032,1.261.688,2.226,1.662,2.894,2.923.668,1.261,1.004,2.809,1.004,4.643v20.808c0,.344-.125.601-.373.774-.249.171-.679.258-1.29.258h-.4c-.613,0-1.042-.086-1.29-.258-.25-.173-.373-.43-.373-.774v-20.579c0-1.834-.478-3.23-1.433-4.185s-2.37-1.433-4.242-1.433c-.918,0-1.806.134-2.666.402s-1.653.63-2.379,1.089c-.726.458-1.357.945-1.891,1.461-.536.516-.956,1.003-1.261,1.462l-.057-1.72c.191.344.316.755.372,1.232.058.479.086.965.086,1.462v20.808c0,.344-.125.601-.372.774-.25.171-.679.258-1.29.258h-.459c-.612,0-1.042-.086-1.289-.258-.25-.173-.373-.43-.373-.774v-20.579c0-1.834-.479-3.23-1.433-4.185-.956-.955-2.37-1.433-4.242-1.433-.918,0-1.855.163-2.809.487-.956.326-1.873.784-2.752,1.376-.879.593-1.624,1.29-2.235,2.092v22.242c0,.344-.125.601-.373.774-.249.171-.679.258-1.29.258h-.459Z"/><path class="cls-1" d="M727.726,335.578c-4.281,0-7.558-1.204-9.831-3.611-2.274-2.407-3.411-6.267-3.411-11.579,0-3.363.488-6.191,1.462-8.483s2.416-4.032,4.328-5.216c1.91-1.185,4.26-1.777,7.051-1.777,2.483,0,4.566.565,6.247,1.691,1.681,1.128,2.953,2.79,3.813,4.987s1.29,4.92,1.29,8.168c0,.268-.077.555-.23.86-.153.306-.363.565-.63.774-.269.211-.555.316-.86.316h-18.63c.037,3.517.822,6.173,2.35,7.968,1.528,1.797,3.898,2.694,7.109,2.694,1.91,0,3.488-.21,4.729-.631,1.241-.421,2.207-.85,2.894-1.29.689-.439,1.128-.659,1.319-.659.229,0,.42.125.573.372.152.25.286.536.402.86.115.326.171.583.171.774,0,.344-.268.727-.802,1.147-.536.421-1.261.832-2.178,1.232-.918.402-1.987.736-3.211,1.003-1.224.268-2.542.402-3.955.402h.001ZM718.325,318.553h16.624c0-3.477-.698-6.095-2.092-7.853-1.395-1.757-3.374-2.638-5.933-2.638-1.834,0-3.392.412-4.672,1.233-1.281.822-2.245,2.006-2.895,3.553-.65,1.548-.994,3.45-1.031,5.704h0Z"/><path class="cls-1" d="M747.857,335.349c-.574,0-1.003-.086-1.29-.258-.287-.173-.43-.43-.43-.774v-20.465c0-1.796-.049-3.2-.143-4.213-.097-1.012-.192-1.777-.287-2.293-.097-.516-.143-.889-.143-1.118,0-.152.085-.286.258-.4s.381-.21.631-.287c.247-.076.516-.134.802-.173.287-.037.525-.057.717-.057.305,0,.545.095.716.287.173.192.335.573.488,1.146.152.573.305,1.376.458,2.407.612-.917,1.299-1.691,2.063-2.321s1.605-1.108,2.522-1.433c.918-.324,1.872-.488,2.867-.488.802,0,1.481.144,2.035.43.554.287.831.659.831,1.118,0,.307-.028.602-.085.889-.058.286-.135.545-.23.774s-.2.411-.314.545c-.116.134-.25.201-.402.201-.192,0-.555-.086-1.089-.259-.536-.171-1.224-.258-2.063-.258-1.376,0-2.59.411-3.641,1.232-1.052.822-1.787,1.806-2.207,2.953v21.783c0,.344-.144.601-.43.774-.287.171-.736.258-1.348.258h-.286Z"/><path class="cls-1" d="M776.783,335.578c-4.281,0-7.558-1.204-9.831-3.611-2.274-2.407-3.411-6.267-3.411-11.579,0-3.363.488-6.191,1.462-8.483s2.416-4.032,4.328-5.216c1.91-1.185,4.26-1.777,7.051-1.777,2.483,0,4.566.565,6.247,1.691,1.681,1.128,2.953,2.79,3.813,4.987s1.29,4.92,1.29,8.168c0,.268-.077.555-.23.86-.153.306-.363.565-.63.774-.269.211-.555.316-.86.316h-18.63c.037,3.517.822,6.173,2.35,7.968,1.528,1.797,3.898,2.694,7.109,2.694,1.91,0,3.488-.21,4.729-.631,1.241-.421,2.207-.85,2.894-1.29.689-.439,1.128-.659,1.319-.659.229,0,.42.125.573.372.152.25.286.536.402.86.115.326.171.583.171.774,0,.344-.268.727-.802,1.147-.536.421-1.261.832-2.178,1.232-.918.402-1.987.736-3.211,1.003-1.224.268-2.542.402-3.955.402h.001ZM767.382,318.553h16.624c0-3.477-.698-6.095-2.092-7.853-1.395-1.757-3.374-2.638-5.933-2.638-1.834,0-3.392.412-4.672,1.233-1.281.822-2.245,2.006-2.895,3.553-.65,1.548-.994,3.45-1.031,5.704h0Z"/><path class="cls-1" d="M806.928,335.578c-4.28,0-7.548-1.204-9.802-3.611-2.256-2.407-3.383-6.267-3.383-11.579,0-5.006,1.127-8.836,3.383-11.493,2.254-2.656,5.521-3.984,9.802-3.984,1.108,0,2.168.086,3.181.259,1.012.171,1.91.4,2.694.688.783.287,1.404.593,1.863.917.459.326.689.641.689.946,0,.192-.049.458-.144.803-.095.344-.229.63-.4.859-.173.23-.373.345-.602.345s-.64-.134-1.232-.402c-.593-.267-1.395-.534-2.407-.802-1.013-.268-2.285-.402-3.813-.402-3.095,0-5.398,1.013-6.907,3.038-1.511,2.026-2.264,5.064-2.264,9.114,0,4.09.753,7.128,2.264,9.114,1.509,1.987,3.906,2.981,7.194,2.981,1.491,0,2.77-.173,3.84-.516s1.93-.697,2.58-1.061c.65-.363,1.07-.545,1.261-.545.229,0,.42.125.573.372.152.25.287.536.402.86.115.326.171.583.171.774,0,.345-.258.708-.774,1.09-.515.382-1.204.736-2.063,1.06-.86.326-1.815.602-2.866.832-1.052.229-2.13.344-3.239.344h0Z"/><path class="cls-1" d="M833.508,335.578c-4.281,0-7.558-1.204-9.831-3.611-2.274-2.407-3.411-6.267-3.411-11.579,0-3.363.488-6.191,1.462-8.483s2.416-4.032,4.328-5.216c1.91-1.185,4.26-1.777,7.051-1.777,2.483,0,4.566.565,6.247,1.691,1.681,1.128,2.953,2.79,3.813,4.987s1.29,4.92,1.29,8.168c0,.268-.077.555-.23.86-.153.306-.363.565-.63.774-.269.211-.555.316-.86.316h-18.63c.037,3.517.822,6.173,2.35,7.968,1.528,1.797,3.898,2.694,7.109,2.694,1.91,0,3.488-.21,4.729-.631,1.241-.421,2.207-.85,2.894-1.29.689-.439,1.128-.659,1.319-.659.229,0,.42.125.573.372.152.25.286.536.402.86.115.326.171.583.171.774,0,.344-.268.727-.802,1.147-.536.421-1.261.832-2.178,1.232-.918.402-1.987.736-3.211,1.003-1.224.268-2.542.402-3.955.402h.001ZM824.107,318.553h16.624c0-3.477-.698-6.095-2.092-7.853-1.395-1.757-3.374-2.638-5.933-2.638-1.834,0-3.392.412-4.672,1.233-1.281.822-2.245,2.006-2.895,3.553-.65,1.548-.994,3.45-1.031,5.704h0Z"/><path class="cls-1" d="M872.199,335.578c-1.453,0-2.657-.258-3.611-.774-.956-.516-1.682-1.29-2.178-2.321-.498-1.032-.745-2.312-.745-3.841v-35.483c0-.344.124-.602.372-.774.249-.173.679-.259,1.29-.259h.402c.61,0,1.04.086,1.29.259.247.171.372.43.372.774v35.311c0,1.49.249,2.503.745,3.038.496.536,1.338.802,2.522.802.955,0,1.663-.104,2.121-.316.458-.21.822-.316,1.089-.316.152,0,.277.096.372.287.095.192.173.411.229.659.058.249.095.487.116.717.018.229.028.4.028.515,0,.344-.25.641-.745.889-.497.249-1.089.449-1.777.601-.689.152-1.319.229-1.892.229h0Z"/><path class="cls-1" d="M890.09,335.578c-2.752,0-4.883-.746-6.392-2.235-1.51-1.491-2.264-3.574-2.264-6.249v-20.923c0-.344.124-.602.372-.774.249-.173.679-.259,1.29-.259h.402c.61,0,1.04.086,1.29.259.247.171.372.43.372.774v20.636c0,1.834.497,3.221,1.491,4.157s2.445,1.405,4.356,1.405c.994,0,1.997-.162,3.01-.488,1.012-.324,1.977-.793,2.895-1.405.917-.61,1.681-1.318,2.293-2.12v-22.185c0-.344.124-.602.372-.774.249-.173.697-.259,1.348-.259h.344c.649,0,1.098.086,1.347.259.249.171.373.43.373.774v20.465c0,1.604.048,2.932.143,3.983.095,1.052.191,1.864.287,2.437.094.573.143.975.143,1.204,0,.153-.077.296-.229.43-.153.134-.344.24-.573.316-.23.077-.479.134-.746.171-.268.039-.516.058-.746.058-.344,0-.602-.095-.774-.287-.173-.191-.326-.573-.459-1.146-.134-.574-.314-1.356-.545-2.35-.688.726-1.548,1.405-2.579,2.035-1.032.631-2.132,1.138-3.297,1.519-1.166.381-2.341.573-3.525.573h.001Z"/><path class="cls-1" d="M921.41,347.387c-2.293,0-4.29-.249-5.99-.746s-3.001-1.281-3.898-2.35c-.898-1.071-1.347-2.447-1.347-4.128,0-1.185.238-2.273.716-3.267s1.118-1.872,1.92-2.636c.802-.764,1.662-1.356,2.58-1.777l.057-.115c-.726-.497-1.328-1.128-1.805-1.892-.479-.764-.717-1.643-.717-2.636,0-1.185.305-2.226.918-3.124.61-.898,1.49-1.614,2.636-2.15-1.682-.688-2.972-1.748-3.87-3.181-.898-1.433-1.347-3.068-1.347-4.901,0-1.91.409-3.574,1.232-4.987.822-1.414,2.035-2.532,3.641-3.354,1.604-.822,3.572-1.233,5.904-1.233.534,0,1.061.028,1.577.086.515.058,1.003.143,1.461.258h10.089c.344,0,.592.106.746.316.152.211.229.545.229,1.004v.573c0,.879-.324,1.318-.975,1.318-.458,0-.984-.009-1.576-.028-.593-.019-1.195-.058-1.806-.115-.612-.058-1.166-.144-1.662-.259l-.058.115c.536.421.994.928,1.376,1.519.381.593.688,1.271.917,2.035.229.765.345,1.682.345,2.752,0,1.757-.422,3.324-1.262,4.7-.841,1.376-2.074,2.446-3.697,3.211-1.624.765-3.641,1.146-6.048,1.146-1.147,0-2.13.143-2.952.43-.822.287-1.443.708-1.863,1.261-.422.554-.631,1.232-.631,2.034,0,.88.229,1.568.688,2.065s1.098.879,1.92,1.146c.822.268,1.757.469,2.809.602,1.051.134,2.15.277,3.296.43,2.025.229,3.735.612,5.13,1.146,1.395.536,2.446,1.3,3.154,2.293.706.994,1.06,2.312,1.06,3.956,0,1.796-.478,3.325-1.433,4.586-.955,1.261-2.389,2.226-4.3,2.895-1.91.668-4.299,1.003-7.165,1.003h-.002ZM921.984,344.349c2.98,0,5.188-.43,6.621-1.29s2.15-2.188,2.15-3.984c0-1.031-.259-1.844-.775-2.436-.515-.593-1.223-1.032-2.12-1.318-.898-.287-1.901-.497-3.01-.631s-2.255-.267-3.44-.402c-1.185-.133-2.312-.353-3.382-.659-1.223.573-2.264,1.338-3.124,2.293-.86.955-1.29,2.159-1.29,3.612,0,1.107.296,2.015.889,2.723.591.707,1.499,1.232,2.723,1.576,1.222.345,2.809.516,4.758.516h0ZM921.984,320.502c1.451,0,2.712-.21,3.784-.631,1.069-.42,1.901-1.069,2.493-1.949.591-.878.888-2.025.888-3.439,0-1.528-.297-2.77-.888-3.727-.593-.954-1.425-1.652-2.493-2.092-1.071-.439-2.332-.659-3.784-.659s-2.723.22-3.813.659c-1.089.44-1.93,1.138-2.522,2.092-.593.956-.888,2.199-.888,3.727,0,2.141.659,3.678,1.977,4.614,1.318.937,3.068,1.405,5.246,1.405h0Z"/><path class="cls-1" d="M950.01,335.578c-2.867,0-5.159-.707-6.879-2.12-1.719-1.414-2.579-3.535-2.579-6.363,0-1.872.333-3.458,1.003-4.758.668-1.299,1.738-2.35,3.209-3.153,1.471-.803,3.411-1.385,5.819-1.748s5.35-.545,8.828-.545v-3.038c0-1.032-.201-1.987-.602-2.867-.402-.878-1.108-1.576-2.12-2.092-1.013-.516-2.437-.774-4.271-.774-1.682,0-3.153.163-4.414.487-1.261.326-2.264.659-3.008,1.004-.746.344-1.252.515-1.519.515-.115,0-.24-.066-.373-.201-.134-.133-.258-.323-.372-.573-.115-.247-.211-.496-.287-.746-.077-.247-.115-.467-.115-.659,0-.267.316-.573.946-.917s1.452-.679,2.464-1.003c1.013-.324,2.111-.592,3.297-.803,1.185-.21,2.369-.316,3.554-.316,1.72,0,3.247.201,4.586.602,1.338.4,2.436.994,3.296,1.777.86.784,1.519,1.73,1.978,2.837.458,1.109.688,2.37.688,3.784v12.727c0,1.604.048,2.932.143,3.983.095,1.052.191,1.864.287,2.437.095.573.143.975.143,1.204,0,.153-.067.296-.201.43s-.314.24-.545.316c-.229.077-.478.134-.744.171-.269.039-.536.058-.803.058-.306,0-.555-.095-.746-.287-.192-.191-.354-.573-.487-1.146-.135-.574-.297-1.356-.488-2.35-.65.688-1.471,1.348-2.464,1.977-.995.631-2.102,1.147-3.325,1.548-1.224.4-2.522.601-3.898.601h0ZM950.296,332.369c1.222,0,2.378-.182,3.468-.545,1.089-.363,2.12-.841,3.095-1.434.975-.592,1.824-1.251,2.551-1.977v-8.369c-3.02,0-5.503.125-7.452.372-1.949.25-3.478.651-4.586,1.204-1.109.555-1.873,1.261-2.294,2.121s-.63,1.92-.63,3.181c0,1.758.487,3.106,1.461,4.042s2.437,1.405,4.386,1.405h0Z"/><path class="cls-1" d="M974.274,335.349c-.574,0-1.003-.086-1.29-.258-.287-.173-.43-.43-.43-.774v-20.465c0-1.796-.049-3.2-.143-4.213-.096-1.012-.192-1.777-.287-2.293-.096-.516-.143-.889-.143-1.118,0-.152.085-.286.258-.4s.381-.21.631-.287c.247-.076.516-.134.802-.173.287-.037.525-.057.717-.057.305,0,.545.095.716.287.173.192.335.573.488,1.146.152.573.305,1.376.458,2.407.612-.917,1.299-1.691,2.064-2.321s1.605-1.108,2.522-1.433c.918-.324,1.872-.488,2.867-.488.802,0,1.481.144,2.035.43.554.287.831.659.831,1.118,0,.307-.028.602-.085.889-.058.286-.135.545-.23.774s-.2.411-.314.545c-.116.134-.25.201-.402.201-.192,0-.555-.086-1.089-.259-.536-.171-1.224-.258-2.064-.258-1.376,0-2.59.411-3.641,1.232-1.052.822-1.787,1.806-2.206,2.953v21.783c0,.344-.144.601-.43.774-.287.171-.736.258-1.348.258h-.286Z"/><path class="cls-1" d="M262.805,82.708v-.195L180.475,0l-97.399,42.646L0,77.895l.067,162.091,159.095,79.727V127.872L85.803,45.491,179.642,4.403l79.622,79.796-92.012,44.895-.05,190.951,39.733-20.699.356-72.177,46.813-23.726.257-38.316-38.42-20.871,46.866-24.397v-37.152h0ZM251.065,166.724l-44.13,22.16v-39.937l5.795-3.057,38.335,20.834h0Z"/></svg>